<?xml version="1.0" encoding="UTF-8" standalone="no"?>
<svg
   xmlns:dc="http://purl.org/dc/elements/1.1/"
   xmlns:cc="http://creativecommons.org/ns#"
   xmlns:rdf="http://www.w3.org/1999/02/22-rdf-syntax-ns#"
   xmlns:svg="http://www.w3.org/2000/svg"
   xmlns="http://www.w3.org/2000/svg"
   id="svg8"
   version="1.1"
   viewBox="0 0 135.7526 34.404102"
   height="1.3544922in"
   width="5.3445907in">
  <defs
     id="defs2" />
  <metadata
     id="metadata5">
    <rdf:RDF>
      <cc:Work
         rdf:about="">
        <dc:format>image/svg+xml</dc:format>
        <dc:type
           rdf:resource="http://purl.org/dc/dcmitype/StillImage" />
        <dc:title></dc:title>
      </cc:Work>
    </rdf:RDF>
  </metadata>
  <g
     transform="translate(-5.2441713e-8,-17.6)"
     id="layer1">
    <g
       id="text3743"
       style="font-style:normal;font-variant:normal;font-weight:normal;font-stretch:normal;font-size:50.79999924px;line-height:1.25;font-family:'Times New Roman';-inkscape-font-specification:'Times New Roman, ';letter-spacing:0px;word-spacing:0px;fill-opacity:1"
       transform="scale(-1)"
       aria-label="WAVM">
      <path
         d="m -88.871748,-52.004102 v 0.917774 q -1.314648,0 -2.133203,0.471289 -0.818554,0.471289 -1.562695,1.761132 -0.496094,0.868164 -1.562695,4.142383 l -9.376169,27.111523 h -0.99219 l -7.66465,-21.505664 -7.61504,21.505664 h -0.89297 l -9.99629,-27.930077 q -1.11621,-3.125391 -1.41386,-3.695899 -0.4961,-0.942578 -1.36426,-1.389062 -0.84336,-0.471289 -2.30684,-0.471289 v -0.917774 h 12.45196 v 0.917774 h -0.59532 q -1.31464,0 -2.00918,0.595312 -0.69453,0.595313 -0.69453,1.438672 0,0.868164 1.09141,3.993555 l 6.62285,18.876366 5.58106,-16.048632 -0.99219,-2.827734 -0.79375,-2.257227 q -0.5209,-1.240234 -1.16582,-2.182812 -0.32246,-0.471289 -0.79375,-0.79375 -0.62012,-0.446485 -1.24024,-0.644922 -0.47129,-0.148828 -1.48828,-0.148828 v -0.917774 h 13.09688 v 0.917774 h -0.89297 q -1.38906,0 -2.03399,0.595312 -0.64492,0.595313 -0.64492,1.612305 0,1.265039 1.11621,4.415234 l 6.44922,18.281054 6.399611,-18.529101 q 1.091406,-3.075781 1.091406,-4.266406 0,-0.570508 -0.37207,-1.066602 -0.347266,-0.496093 -0.892969,-0.694531 -0.942578,-0.347265 -2.455664,-0.347265 v -0.917774 z m -8.980373,34.404101 v -0.917774 q 1.785937,-0.322461 2.703711,-1.141015 1.314648,-1.21543 2.33164,-3.720703 l 11.732617,-28.624609 h 0.917774 l 12.600781,28.996679 q 0.967383,2.232422 1.364258,2.728516 0.620117,0.768945 1.53789,1.190625 0.892969,0.446484 2.43086,0.570507 v 0.917774 h -13.741797 v -0.917774 q 2.33164,-0.223242 3.026172,-0.79375 0.694531,-0.570507 0.694531,-1.463476 0,-1.240235 -1.141016,-3.869531 l -8.557617,-19.719727 -7.9375,19.47168 q -1.16582,2.877343 -1.16582,3.993554 0,0.719336 0.719336,1.364258 0.719336,0.669727 2.430859,0.942578 0.124024,0.02481 0.42168,0.07441 v 0.917774 z m 59.951744,-34.404101 v 0.917774 q -1.785938,0.322461 -2.703711,1.141015 -1.314649,1.21543 -2.331641,3.720703 l -11.732617,28.624609 h -0.917773 L -68.1869,-46.59668 q -0.967383,-2.232422 -1.364258,-2.728516 -0.620117,-0.768945 -1.537891,-1.190625 -0.892969,-0.446484 -2.430859,-0.570507 v -0.917774 h 13.741797 v 0.917774 q -2.331641,0.223242 -3.026172,0.79375 -0.694532,0.570507 -0.694532,1.463476 0,1.240234 1.141016,3.869531 l 8.557617,19.719727 7.9375,-19.47168 q 1.16582,-2.877344 1.16582,-3.993554 0,-0.719336 -0.719336,-1.364258 -0.719336,-0.669727 -2.430859,-0.942578 -0.124023,-0.02481 -0.42168,-0.07441 v -0.917774 z m -8.980482,34.404101 v -0.917774 q 1.314649,0 2.133203,-0.471289 0.818555,-0.471289 1.562696,-1.761133 0.496093,-0.868164 1.562695,-4.142382 l 9.376172,-27.111523 h 0.992187 l 7.664648,21.505663 7.615039,-21.505663 h 0.892969 l 9.9962891,27.930077 q 1.1162109,3.125391 1.4138671,3.695899 0.4960938,0.942578 1.3642578,1.389062 0.8433594,0.471289 2.30683593853271,0.471289 v 0.917774 H -12.451953 v -0.917774 h 0.595312 q 1.314649,0 2.0091801,-0.595312 0.6945313,-0.595313 0.6945313,-1.438672 0,-0.868164 -1.0914064,-3.993555 l -6.622851,-18.876367 -5.581055,16.048633 0.992188,2.827734 0.79375,2.257227 q 0.520898,1.240234 1.16582,2.182812 0.322461,0.471289 0.79375,0.79375 0.620117,0.446485 1.240234,0.644922 0.471289,0.148828 1.488281,0.148828 v 0.917774 h -13.096874 v -0.917774 h 0.892968 q 1.389063,0 2.033985,-0.595312 0.644922,-0.595313 0.644922,-1.612305 0,-1.265039 -1.116211,-4.415234 l -6.449219,-18.281055 -6.399609,18.529102 q -1.091407,3.075781 -1.091407,4.266406 0,0.570508 0.372071,1.066601 0.347265,0.496094 0.892969,0.694532 0.942578,0.347265 2.455664,0.347265 v 0.917774 z"
         style="fill-opacity:1"
         id="path838" />
    </g>
  </g>
</svg>
